<svg xmlns="http://www.w3.org/2000/svg" viewBox="0 0 64 64" fill="none">
  <rect width="64" height="64" rx="14" fill="#F2F3FF"/>
  <g transform="translate(6 12.5) scale(1.8571428571428572)">
    <path d="M17.8962 16.8382C17.8962 16.8382 24.5046 0.590019 20.0281 0.590019C16.2162 0.590019 14.1672 5.6657 13.6429 7.17221C14.1247 5.61318 15.5412 0.204133 12.0528 0.00400228C9.83478 -0.123705 7.89009 2.82794 6.5778 5.54573C6.57726 5.54629 6.57726 5.54739 6.57671 5.54795C6.33717 6.16603 6.11946 6.78798 5.91211 7.4127C5.36919 9.03917 4.83445 10.9769 4.30354 12.6095C4.25279 12.7571 4.18459 12.9732 4.12129 13.1153C4.00834 13.374 3.62529 13.2552 3.6744 12.9776L3.68914 12.8964C3.98379 11.747 4.33682 10.6098 4.74933 9.49527L4.12893 5.82934H0L1.50163 21H5.41448C6.23568 18.5133 9.28913 9.44938 10.1878 9.34821C11.0876 9.24704 7.95502 18.4851 7.0858 21H11.9819C12.6853 18.4895 15.3442 9.27911 16.4781 9.34766C17.5699 9.41289 14.732 18.0909 13.7498 21H28V16.8382H17.8962ZM10.6336 2.54046C9.80095 3.14583 9.15982 3.97012 8.74239 4.91604C8.57051 5.30525 8.00631 4.96746 8.17656 4.58102C8.64145 3.52785 9.38026 2.63887 10.3035 1.96771C10.6467 1.71783 10.973 2.29389 10.6336 2.54046ZM16.8949 4.46326C16.7111 4.84749 16.1463 4.51081 16.3296 4.12824C16.7563 3.2376 17.4968 2.51835 18.3971 2.1308C18.5586 2.0617 18.7485 2.07828 18.8451 2.25022C18.9242 2.39175 18.8915 2.63334 18.7272 2.7041C17.9159 3.05295 17.2802 3.65887 16.8949 4.46326ZM21.6306 18.5459C20.5912 18.4597 19.5501 18.4077 18.5079 18.3889C18.0866 18.3817 18.0866 17.7183 18.5079 17.7255C19.5501 17.7443 20.5912 17.7963 21.6306 17.8825C22.0481 17.9168 22.0502 18.5807 21.6306 18.5459Z" fill="#828AC4"/>
  </g>
</svg>
